# xmcd
#
# Track frame offsets: 
#        150
#        23391
#        62090
#        73548
#        82946
#        96432
#        112172
#        126571
#        142221
#        150952
#        165327
#        174797
#        186938
#        202928
#        216681
#        227254
#        238783
#        253724
#        266006
#        276271
#
# Disc length: 3870 seconds
#
# Revision: 9
# Processed by: cddbd v1.5.2PL0 Copyright (c) Steve Scherf et al.
# Submitted via: ExactAudioCopy v0.99pb5
#
DISCID=1c0f1c14
DTITLE=Various Artist - The Best Of Acoustic Disc 2
DYEAR=2004
DGENRE=Folk
TTITLE0=Simon and Garfunkel - The Boxer
TTITLE1=Don McLean - American Pie
TTITLE2=The Byrds - Mr. Tambourine Man
TTITLE3=Glen Compbell and Bobbie Gentry - Let It Be Me
TTITLE4=Johnny Cash - If I Were A Carpenter
TTITLE5=Andy Williams - El condor Pasa (If I Could)
TTITLE6=The Sandpipers - Guantanamera
TTITLE7=The Brothers Four - Puff The Magic Dragon
TTITLE8=Pete Seeger - Where Have All The Flowers Gone
TTITLE9=Johnny Cash - Danny Boy
TTITLE10=John Davidson - Today
TTITLE11=Cliff Richards - Evergreen Tree
TTITLE12=The New Christy Minstrels - Cotton Fields
TTITLE13=Dana - All Kinds Of Everything
TTITLE14=The Everly brothers - All I Have To Do Is Dream
TTITLE15=Cascades - Rhythm Of The Rain
TTITLE16=Timi Yuro - Interlude
TTITLE17=The Brothers Four - Seven Daffodils
TTITLE18=Pete Seeger - Michael Row The Boat Ashore
TTITLE19=The Brothers Four - We Shall Overcome
EXTD=Countries from the 60 and 70 of British, America
EXTT0=
EXTT1=
EXTT2=
EXTT3=
EXTT4=
EXTT5=
EXTT6=
EXTT7=
EXTT8=
EXTT9=
EXTT10=
EXTT11=
EXTT12=
EXTT13=
EXTT14=
EXTT15=
EXTT16=
EXTT17=
EXTT18=
EXTT19=
PLAYORDER=
